<mxfile host="app.diagrams.net" modified="2023-10-18T23:17:15.820Z" agent="Mozilla/5.0 (Windows NT 10.0; Win64; x64) AppleWebKit/537.36 (KHTML, like Gecko) Chrome/117.0.0.0 Safari/537.36" etag="PwW6t36wI3vS-fEsy9La" version="22.0.4" type="google">
  <diagram name="Página-1" id="8rzo6csGEk0--IzWBMQr">
    <mxGraphModel grid="1" page="1" gridSize="10" guides="1" tooltips="1" connect="1" arrows="1" fold="1" pageScale="1" pageWidth="827" pageHeight="1169" math="0" shadow="0">
      <root>
        <mxCell id="0" />
        <mxCell id="1" parent="0" />
        <mxCell id="svCO1p63RPko5Ax2G_RM-22" style="edgeStyle=orthogonalEdgeStyle;rounded=0;orthogonalLoop=1;jettySize=auto;html=1;exitX=1;exitY=0.5;exitDx=0;exitDy=0;entryX=0;entryY=0.5;entryDx=0;entryDy=0;" edge="1" parent="1" source="svCO1p63RPko5Ax2G_RM-1" target="svCO1p63RPko5Ax2G_RM-8">
          <mxGeometry relative="1" as="geometry" />
        </mxCell>
        <mxCell id="svCO1p63RPko5Ax2G_RM-1" value="iani" style="ellipse;fillColor=strokeColor;html=1;" vertex="1" parent="1">
          <mxGeometry x="70" y="95" width="30" height="30" as="geometry" />
        </mxCell>
        <mxCell id="svCO1p63RPko5Ax2G_RM-2" value="INÍCIO" style="text;html=1;strokeColor=none;fillColor=none;align=center;verticalAlign=middle;whiteSpace=wrap;rounded=0;" vertex="1" parent="1">
          <mxGeometry x="55" y="130" width="60" height="30" as="geometry" />
        </mxCell>
        <mxCell id="svCO1p63RPko5Ax2G_RM-21" style="edgeStyle=orthogonalEdgeStyle;rounded=0;orthogonalLoop=1;jettySize=auto;html=1;exitX=0.5;exitY=1;exitDx=0;exitDy=0;entryX=0.3;entryY=0.77;entryDx=0;entryDy=0;entryPerimeter=0;" edge="1" parent="1" source="svCO1p63RPko5Ax2G_RM-3" target="svCO1p63RPko5Ax2G_RM-7">
          <mxGeometry relative="1" as="geometry">
            <mxPoint x="310" y="670" as="targetPoint" />
          </mxGeometry>
        </mxCell>
        <mxCell id="svCO1p63RPko5Ax2G_RM-3" value="ENTRAR" style="rounded=1;whiteSpace=wrap;html=1;" vertex="1" parent="1">
          <mxGeometry x="260" y="490" width="120" height="60" as="geometry" />
        </mxCell>
        <mxCell id="svCO1p63RPko5Ax2G_RM-13" style="edgeStyle=orthogonalEdgeStyle;rounded=0;orthogonalLoop=1;jettySize=auto;html=1;exitX=0;exitY=0.5;exitDx=0;exitDy=0;entryX=0.5;entryY=0;entryDx=0;entryDy=0;" edge="1" parent="1" source="svCO1p63RPko5Ax2G_RM-4">
          <mxGeometry relative="1" as="geometry">
            <mxPoint x="240" y="270" as="targetPoint" />
            <Array as="points">
              <mxPoint x="240" y="245" />
              <mxPoint x="240" y="330" />
            </Array>
          </mxGeometry>
        </mxCell>
        <mxCell id="svCO1p63RPko5Ax2G_RM-18" style="edgeStyle=orthogonalEdgeStyle;rounded=0;orthogonalLoop=1;jettySize=auto;html=1;exitX=1;exitY=0.5;exitDx=0;exitDy=0;entryX=0.5;entryY=0;entryDx=0;entryDy=0;" edge="1" parent="1" source="svCO1p63RPko5Ax2G_RM-4" target="svCO1p63RPko5Ax2G_RM-17">
          <mxGeometry relative="1" as="geometry" />
        </mxCell>
        <mxCell id="svCO1p63RPko5Ax2G_RM-4" value="USUÁRIO CADASTRADO?" style="rhombus;whiteSpace=wrap;html=1;" vertex="1" parent="1">
          <mxGeometry x="320" y="190" width="130" height="90" as="geometry" />
        </mxCell>
        <mxCell id="svCO1p63RPko5Ax2G_RM-6" value="" style="ellipse;html=1;shape=endState;fillColor=strokeColor;" vertex="1" parent="1">
          <mxGeometry x="407.5" y="780" width="30" height="30" as="geometry" />
        </mxCell>
        <mxCell id="svCO1p63RPko5Ax2G_RM-7" value="" style="html=1;points=[];perimeter=orthogonalPerimeter;fillColor=strokeColor;rotation=90;" vertex="1" parent="1">
          <mxGeometry x="354" y="400" width="10" height="470" as="geometry" />
        </mxCell>
        <mxCell id="svCO1p63RPko5Ax2G_RM-11" style="edgeStyle=orthogonalEdgeStyle;rounded=0;orthogonalLoop=1;jettySize=auto;html=1;exitX=0.5;exitY=1;exitDx=0;exitDy=0;entryX=0.5;entryY=0;entryDx=0;entryDy=0;" edge="1" parent="1" source="svCO1p63RPko5Ax2G_RM-8" target="svCO1p63RPko5Ax2G_RM-4">
          <mxGeometry relative="1" as="geometry" />
        </mxCell>
        <mxCell id="svCO1p63RPko5Ax2G_RM-8" value="ACESSAR SISTEMA" style="rounded=1;whiteSpace=wrap;html=1;" vertex="1" parent="1">
          <mxGeometry x="312.5" y="80" width="120" height="60" as="geometry" />
        </mxCell>
        <mxCell id="svCO1p63RPko5Ax2G_RM-32" style="edgeStyle=orthogonalEdgeStyle;rounded=0;orthogonalLoop=1;jettySize=auto;html=1;exitX=1;exitY=0.5;exitDx=0;exitDy=0;" edge="1" parent="1" source="svCO1p63RPko5Ax2G_RM-9">
          <mxGeometry relative="1" as="geometry">
            <mxPoint x="330" y="325" as="sourcePoint" />
            <mxPoint x="350" y="490" as="targetPoint" />
          </mxGeometry>
        </mxCell>
        <mxCell id="svCO1p63RPko5Ax2G_RM-9" value="&#xa;&lt;span style=&quot;color: rgb(0, 0, 0); font-family: Helvetica; font-size: 12px; font-style: normal; font-variant-ligatures: normal; font-variant-caps: normal; font-weight: 400; letter-spacing: normal; orphans: 2; text-align: center; text-indent: 0px; text-transform: none; widows: 2; word-spacing: 0px; -webkit-text-stroke-width: 0px; background-color: rgb(251, 251, 251); text-decoration-thickness: initial; text-decoration-style: initial; text-decoration-color: initial; float: none; display: inline !important;&quot;&gt;USUÁRIO ESQUECEU A SENHA?&lt;/span&gt;&#xa;&#xa;" style="rhombus;whiteSpace=wrap;html=1;" vertex="1" parent="1">
          <mxGeometry x="182.5" y="270" width="117.5" height="110" as="geometry" />
        </mxCell>
        <mxCell id="svCO1p63RPko5Ax2G_RM-42" style="edgeStyle=orthogonalEdgeStyle;rounded=0;orthogonalLoop=1;jettySize=auto;html=1;exitX=1;exitY=0.5;exitDx=0;exitDy=0;entryX=0;entryY=0.5;entryDx=0;entryDy=0;" edge="1" parent="1" source="svCO1p63RPko5Ax2G_RM-10" target="svCO1p63RPko5Ax2G_RM-3">
          <mxGeometry relative="1" as="geometry" />
        </mxCell>
        <mxCell id="svCO1p63RPko5Ax2G_RM-10" value="RECUPERAR SENHA" style="rounded=1;whiteSpace=wrap;html=1;" vertex="1" parent="1">
          <mxGeometry x="90" y="490" width="120" height="60" as="geometry" />
        </mxCell>
        <mxCell id="svCO1p63RPko5Ax2G_RM-12" value="SIM" style="text;html=1;strokeColor=none;fillColor=none;align=center;verticalAlign=middle;whiteSpace=wrap;rounded=0;" vertex="1" parent="1">
          <mxGeometry x="240" y="200" width="60" height="30" as="geometry" />
        </mxCell>
        <mxCell id="svCO1p63RPko5Ax2G_RM-25" style="edgeStyle=orthogonalEdgeStyle;rounded=0;orthogonalLoop=1;jettySize=auto;html=1;exitX=0.5;exitY=1;exitDx=0;exitDy=0;entryX=0.5;entryY=0;entryDx=0;entryDy=0;" edge="1" parent="1" source="svCO1p63RPko5Ax2G_RM-15" target="svCO1p63RPko5Ax2G_RM-6">
          <mxGeometry relative="1" as="geometry" />
        </mxCell>
        <mxCell id="svCO1p63RPko5Ax2G_RM-15" value="USUÁRIO ACESSA PÁGINA HOME" style="rounded=1;whiteSpace=wrap;html=1;" vertex="1" parent="1">
          <mxGeometry x="362.5" y="680" width="120" height="60" as="geometry" />
        </mxCell>
        <mxCell id="svCO1p63RPko5Ax2G_RM-16" value="PÁGINA CADASTRO CLIENTE" style="rounded=1;whiteSpace=wrap;html=1;" vertex="1" parent="1">
          <mxGeometry x="490" y="470" width="120" height="60" as="geometry" />
        </mxCell>
        <mxCell id="svCO1p63RPko5Ax2G_RM-20" style="edgeStyle=orthogonalEdgeStyle;rounded=0;orthogonalLoop=1;jettySize=auto;html=1;exitX=0.5;exitY=1;exitDx=0;exitDy=0;entryX=0.5;entryY=0;entryDx=0;entryDy=0;" edge="1" parent="1" source="svCO1p63RPko5Ax2G_RM-17" target="svCO1p63RPko5Ax2G_RM-16">
          <mxGeometry relative="1" as="geometry" />
        </mxCell>
        <mxCell id="svCO1p63RPko5Ax2G_RM-17" value="CRIAR CONTA" style="rounded=1;whiteSpace=wrap;html=1;" vertex="1" parent="1">
          <mxGeometry x="490" y="280" width="120" height="60" as="geometry" />
        </mxCell>
        <mxCell id="svCO1p63RPko5Ax2G_RM-19" value="&lt;div style=&quot;text-align: center;&quot;&gt;&lt;span style=&quot;background-color: initial;&quot;&gt;NÃO&lt;/span&gt;&lt;/div&gt;" style="text;whiteSpace=wrap;html=1;" vertex="1" parent="1">
          <mxGeometry x="500" y="200" width="30" height="20" as="geometry" />
        </mxCell>
        <mxCell id="svCO1p63RPko5Ax2G_RM-24" style="edgeStyle=orthogonalEdgeStyle;rounded=0;orthogonalLoop=1;jettySize=auto;html=1;exitX=0.5;exitY=1;exitDx=0;exitDy=0;entryX=0;entryY=0.094;entryDx=0;entryDy=0;entryPerimeter=0;" edge="1" parent="1" source="svCO1p63RPko5Ax2G_RM-16" target="svCO1p63RPko5Ax2G_RM-7">
          <mxGeometry relative="1" as="geometry">
            <mxPoint x="550" y="590" as="targetPoint" />
          </mxGeometry>
        </mxCell>
        <mxCell id="svCO1p63RPko5Ax2G_RM-26" value="&lt;div style=&quot;text-align: center;&quot;&gt;&lt;span style=&quot;background-color: initial;&quot;&gt;FINAL&lt;/span&gt;&lt;/div&gt;" style="text;whiteSpace=wrap;html=1;" vertex="1" parent="1">
          <mxGeometry x="407.5" y="810" width="30" height="20" as="geometry" />
        </mxCell>
        <mxCell id="svCO1p63RPko5Ax2G_RM-27" style="edgeStyle=orthogonalEdgeStyle;rounded=0;orthogonalLoop=1;jettySize=auto;html=1;exitX=1.05;exitY=0.507;exitDx=0;exitDy=0;exitPerimeter=0;" edge="1" parent="1" source="svCO1p63RPko5Ax2G_RM-7">
          <mxGeometry relative="1" as="geometry">
            <mxPoint x="446" y="255" as="sourcePoint" />
            <mxPoint x="420" y="680" as="targetPoint" />
          </mxGeometry>
        </mxCell>
        <mxCell id="svCO1p63RPko5Ax2G_RM-33" style="edgeStyle=orthogonalEdgeStyle;rounded=0;orthogonalLoop=1;jettySize=auto;html=1;exitX=0;exitY=0.5;exitDx=0;exitDy=0;entryX=0.417;entryY=0;entryDx=0;entryDy=0;entryPerimeter=0;" edge="1" parent="1" source="svCO1p63RPko5Ax2G_RM-9" target="svCO1p63RPko5Ax2G_RM-10">
          <mxGeometry relative="1" as="geometry" />
        </mxCell>
        <mxCell id="svCO1p63RPko5Ax2G_RM-34" value="SIM" style="text;html=1;strokeColor=none;fillColor=none;align=center;verticalAlign=middle;whiteSpace=wrap;rounded=0;" vertex="1" parent="1">
          <mxGeometry x="130" y="295" width="60" height="30" as="geometry" />
        </mxCell>
        <mxCell id="svCO1p63RPko5Ax2G_RM-35" value="&lt;div style=&quot;text-align: center;&quot;&gt;&lt;span style=&quot;background-color: initial;&quot;&gt;NÃO&lt;/span&gt;&lt;/div&gt;" style="text;whiteSpace=wrap;html=1;" vertex="1" parent="1">
          <mxGeometry x="320" y="300" width="27.5" height="20" as="geometry" />
        </mxCell>
      </root>
    </mxGraphModel>
  </diagram>
</mxfile>
